<?xml version="1.0" standalone="no"?>
<!DOCTYPE svg PUBLIC "-//W3C//DTD SVG 20010904//EN"
 "http://www.w3.org/TR/2001/REC-SVG-20010904/DTD/svg10.dtd">
<svg version="1.0" xmlns="http://www.w3.org/2000/svg"
 width="422.000000pt" height="422.000000pt" viewBox="0 0 422.000000 422.000000"
 preserveAspectRatio="xMidYMid meet">
<metadata>
Created by potrace 1.14, written by Peter Selinger 2001-2017
</metadata>
<g transform="translate(0.000000,422.000000) scale(0.100000,-0.100000)"
fill="#000000" stroke="none">
<path d="M2520 3802 c-21 -17 -22 -24 -23 -205 0 -103 -4 -187 -8 -187 -10 0
-29 120 -32 211 -4 83 -8 94 -36 102 -42 11 -55 -14 -55 -104 1 -167 26 -256
88 -326 l43 -48 0 -269 0 -269 -18 46 c-26 65 -36 162 -38 368 -1 45 -6 82
-14 93 -15 21 -62 25 -80 7 -21 -21 -9 -311 18 -451 12 -60 32 -99 79 -148 48
-51 51 -58 52 -107 1 -39 10 -70 34 -116 18 -35 36 -68 40 -73 5 -5 23 20 41
55 l32 64 0 210 0 210 58 61 c74 78 93 137 108 332 10 138 6 258 -9 277 -17
20 -46 19 -69 -4 -15 -15 -19 -36 -21 -117 -3 -161 -7 -228 -15 -265 -8 -41
-33 -117 -44 -137 -5 -8 -8 161 -8 376 1 366 -1 393 -18 412 -23 25 -75 26
-105 2z"/>
<path d="M3667 3273 c3 -8 1 -13 -4 -11 -5 2 -52 -37 -104 -85 -52 -48 -109
-98 -127 -110 -17 -12 -32 -28 -32 -35 0 -7 -3 -11 -8 -8 -4 2 -30 -16 -57
-41 -28 -26 -41 -40 -30 -32 18 13 19 13 7 -3 -8 -9 -20 -14 -28 -11 -19 7
-18 -14 2 -25 13 -7 7 -14 -32 -37 -71 -41 -71 -41 -45 -12 13 15 28 24 34 20
6 -3 7 -1 4 4 -4 6 -1 10 6 9 14 -1 23 17 10 21 -5 2 -35 -20 -68 -47 -33 -28
-89 -65 -125 -82 -194 -92 -359 -260 -460 -469 l-37 -76 -34 71 c-92 192 -296
398 -491 497 -35 18 -49 32 -57 59 -28 89 -135 187 -280 258 l-76 37 -178 0
c-174 0 -179 -1 -197 -23 -22 -27 -19 -37 35 -116 66 -97 102 -132 167 -164
183 -90 404 -130 504 -91 22 8 35 4 78 -22 145 -89 294 -251 384 -419 37 -70
92 -208 92 -232 0 -6 -22 26 -50 72 -67 112 -118 176 -205 258 -266 254 -641
364 -1003 297 -45 -9 -92 -19 -105 -24 -17 -7 -32 -2 -67 23 -103 73 -226 120
-254 97 -9 -7 -29 -9 -55 -5 -37 6 -41 5 -41 -15 0 -24 4 -23 -74 -25 -56 -1
-60 -3 -67 -29 -11 -43 -26 -55 -84 -72 -52 -15 -70 -34 -63 -66 2 -7 -8 -18
-20 -25 -33 -17 -40 -25 -46 -58 -3 -16 -12 -36 -21 -46 -21 -23 -19 -47 4
-55 11 -3 35 -19 55 -34 26 -21 44 -28 64 -25 21 3 34 -2 49 -20 19 -22 25
-23 60 -15 90 22 97 22 122 -5 l24 -25 53 35 c63 39 63 39 79 17 11 -15 15
-14 40 11 16 16 33 25 42 21 26 -9 91 70 142 174 47 95 47 96 91 104 68 13
246 12 330 -2 315 -54 597 -237 774 -504 61 -92 122 -221 149 -317 42 -148 60
-405 38 -543 -59 -361 -332 -580 -590 -474 -131 54 -234 164 -261 278 -25 103
-9 236 37 308 15 24 14 26 -38 70 -30 25 -115 104 -189 177 -169 165 -228 218
-298 271 -141 105 -309 177 -493 210 -161 30 -167 29 -201 -37 -15 -30 -41
-97 -58 -148 -78 -238 -75 -470 10 -722 29 -88 70 -184 74 -178 2 2 -3 44 -11
93 -20 132 -23 380 -7 505 17 123 45 232 62 238 23 7 88 -71 111 -133 13 -33
47 -150 77 -260 75 -274 99 -346 152 -450 160 -312 472 -499 852 -510 375 -10
653 154 825 486 67 129 82 181 110 378 54 370 76 451 162 585 105 162 290 291
480 334 l38 9 -3 -38 c-5 -48 23 -106 62 -130 73 -45 197 -54 282 -21 27 11
67 20 88 19 27 -1 69 15 159 61 159 81 243 106 286 82 30 -16 27 6 -4 26 -13
8 -45 22 -70 30 -51 15 -93 42 -143 91 -117 117 -264 184 -391 177 -182 -9
-337 -149 -281 -253 7 -14 6 -18 -8 -17 -112 5 -288 -52 -407 -134 -60 -41
-161 -144 -202 -206 -20 -30 -37 -54 -38 -54 -5 0 7 91 21 164 38 198 135 381
267 506 74 70 195 160 218 161 10 1 25 2 32 2 6 1 50 -5 97 -11 183 -27 400
-40 400 -24 0 5 -16 9 -36 7 -20 -2 -33 -1 -30 3 11 10 125 9 119 -1 -8 -13
89 -1 147 18 l45 15 -37 -3 c-21 -2 -38 1 -38 5 0 4 -12 8 -27 8 -20 0 -24 3
-14 9 23 15 -40 23 -90 12 -30 -7 -46 -7 -50 1 -4 5 -27 9 -52 7 -71 -6 -38
13 48 27 87 15 116 22 96 23 -37 2 -20 10 50 26 l64 15 -60 -4 c-33 -3 -91
-10 -129 -16 -88 -14 -97 -6 -11 10 68 13 98 29 42 23 -31 -3 -31 -3 9 14 22
10 48 25 57 34 15 16 14 18 -16 33 -18 8 -27 16 -21 16 5 0 19 7 30 15 17 14
15 14 -20 0 -45 -18 -49 -18 -41 -5 4 6 -1 7 -12 3 -33 -12 -36 -16 -18 -30
11 -7 14 -13 9 -13 -6 0 -15 5 -20 10 -7 7 -23 5 -48 -5 -53 -22 -56 -12 -4
11 24 10 48 24 53 30 6 7 37 26 70 43 42 22 53 31 37 31 -13 0 -44 -12 -70
-27 -25 -15 -42 -21 -38 -14 7 10 3 12 -15 6 -20 -5 -21 -4 -9 5 12 10 11 11
-8 7 -29 -7 -31 -10 46 47 34 25 62 49 62 52 0 3 -12 -4 -26 -15 -15 -11 -30
-18 -35 -15 -5 3 -28 -10 -51 -28 -45 -36 -60 -46 -133 -95 -72 -48 -79 -40
-10 11 55 39 170 142 135 118 -34 -22 -149 -109 -200 -151 -30 -25 -48 -37
-40 -26 8 11 18 22 22 25 12 9 150 134 210 189 60 56 68 68 44 68 -8 0 -12 -6
-9 -14z m63 -243 c8 -5 11 -10 5 -10 -5 0 -17 5 -25 10 -8 5 -10 10 -5 10 6 0
17 -5 25 -10z m54 -19 c6 -8 -78 -49 -116 -56 -11 -2 -29 -7 -41 -11 -49 -15
-5 8 59 31 38 13 65 24 61 25 -5 0 -5 5 -2 10 8 12 32 13 39 1z m-473 -149
c-7 -2 -18 1 -23 6 -8 8 -4 9 13 5 13 -4 18 -8 10 -11z m224 -22 c-11 -5 -40
-8 -65 -8 -55 0 -21 12 43 15 31 1 37 -1 22 -7z m-275 -26 c0 -8 -19 -13 -24
-6 -3 5 1 9 9 9 8 0 15 -2 15 -3z m535 1 c-14 -7 -139 -23 -144 -19 -7 6 65
20 109 22 25 0 41 -1 35 -3z m-166 -9 c-7 -8 -108 -10 -115 -3 -4 4 21 7 56 7
35 0 61 -2 59 -4z m156 -26 c3 -5 1 -10 -4 -10 -6 0 -11 5 -11 10 0 6 2 10 4
10 3 0 8 -4 11 -10z"/>
<path d="M3730 3150 c-14 -11 -30 -20 -37 -20 -18 0 -25 -17 -9 -23 7 -3 29
10 47 29 37 38 37 43 -1 14z"/>
<path d="M3820 2870 c-9 -6 -10 -10 -3 -10 6 0 15 5 18 10 8 12 4 12 -15 0z"/>
<path d="M3728 2856 c-52 -13 -48 -26 5 -15 60 13 63 15 46 20 -7 3 -31 1 -51
-5z"/>
<path d="M3700 2758 c0 -4 4 -8 9 -8 6 0 12 4 15 8 3 5 -1 9 -9 9 -8 0 -15 -4
-15 -9z"/>
<path d="M2426 1527 c-8 -77 -39 -194 -67 -251 -30 -59 -131 -153 -197 -184
-82 -37 -168 -37 -240 2 -108 60 -173 207 -141 319 l8 30 -23 -22 c-48 -45
-71 -117 -71 -221 0 -80 4 -102 23 -138 89 -167 291 -238 464 -163 130 57 239
231 264 421 6 52 7 205 1 242 -7 39 -15 25 -21 -35z"/>
<path d="M551 935 c52 -79 196 -217 290 -279 134 -87 286 -148 439 -176 74
-14 298 -22 305 -11 2 4 -1 8 -8 8 -158 4 -392 102 -528 220 -67 59 -84 68
-145 77 -147 24 -242 68 -325 150 l-61 61 33 -50z"/>
</g>
</svg>
